G04*
G04 #@! TF.GenerationSoftware,Altium Limited,Altium Designer,24.4.1 (13)*
G04*
G04 Layer_Physical_Order=4*
G04 Layer_Color=16711680*
%FSLAX25Y25*%
%MOIN*%
G70*
G04*
G04 #@! TF.SameCoordinates,D49A6A7F-BD6C-421B-9F91-F44A7ED913D7*
G04*
G04*
G04 #@! TF.FilePolarity,Positive*
G04*
G01*
G75*
%ADD13C,0.01000*%
%ADD15R,0.14961X0.03150*%
%ADD31C,0.02362*%
%ADD34C,0.07480*%
%ADD35R,0.07480X0.07480*%
%ADD36C,0.06299*%
%ADD37R,0.06299X0.06299*%
%ADD38C,0.23622*%
%ADD39R,0.03961X0.04153*%
%ADD40R,0.03773X0.04355*%
%ADD41R,0.03381X0.03591*%
%ADD42R,0.03740X0.04134*%
%ADD43R,0.04355X0.03773*%
G36*
X173298Y136275D02*
X175638Y135648D01*
X177876Y134721D01*
X179974Y133510D01*
X181896Y132035D01*
X183609Y130322D01*
X185084Y128400D01*
X186296Y126302D01*
X187223Y124064D01*
X187850Y121723D01*
X188166Y119322D01*
Y118110D01*
Y44754D01*
X172520D01*
X172137Y44595D01*
X171978Y44213D01*
Y40669D01*
X172137Y40287D01*
X172520Y40128D01*
X188166D01*
Y0D01*
Y-1211D01*
X187850Y-3613D01*
X187223Y-5953D01*
X186296Y-8191D01*
X185084Y-10289D01*
X183609Y-12211D01*
X181896Y-13924D01*
X179974Y-15399D01*
X177876Y-16611D01*
X175638Y-17538D01*
X173298Y-18165D01*
X170896Y-18481D01*
X169685D01*
X0Y-18481D01*
X-1211D01*
X-3613Y-18165D01*
X-5953Y-17538D01*
X-8191Y-16611D01*
X-10289Y-15399D01*
X-12211Y-13925D01*
X-13925Y-12212D01*
X-15399Y-10289D01*
X-16611Y-8191D01*
X-17538Y-5953D01*
X-18165Y-3613D01*
X-18481Y-1211D01*
Y0D01*
Y118110D01*
Y119322D01*
X-18165Y121723D01*
X-17538Y124064D01*
X-16611Y126302D01*
X-15399Y128400D01*
X-13925Y130322D01*
X-12212Y132035D01*
X-10289Y133510D01*
X-8191Y134721D01*
X-5953Y135648D01*
X-3613Y136275D01*
X-1211Y136591D01*
X170896D01*
X173298Y136275D01*
D02*
G37*
%LPC*%
G36*
X101281Y111544D02*
X24248D01*
X23858Y111466D01*
X23527Y111245D01*
X23306Y110915D01*
X23228Y110524D01*
Y42083D01*
X23306Y41693D01*
X23527Y41362D01*
X23858Y41141D01*
X24248Y41063D01*
X31206D01*
X31464Y40170D01*
X31464D01*
Y34815D01*
X36237D01*
Y36473D01*
X48278D01*
Y30709D01*
X48436Y30326D01*
X48819Y30167D01*
X68801D01*
X69183Y30326D01*
X69342Y30709D01*
Y40404D01*
X79058D01*
X79512Y39725D01*
Y38857D01*
X79276Y38505D01*
X78710D01*
Y32150D01*
X84482D01*
Y37776D01*
X84995Y37878D01*
X85491Y38210D01*
X88011Y40730D01*
X88342Y41226D01*
X88459Y41811D01*
Y64827D01*
X92218D01*
X92256Y64639D01*
X92291Y64450D01*
X92295Y64444D01*
X92296Y64437D01*
X92402Y64277D01*
X92507Y64117D01*
X92513Y64112D01*
X92517Y64106D01*
X92677Y64000D01*
X92834Y63891D01*
X93683Y63525D01*
X93690Y63524D01*
X93696Y63519D01*
X93884Y63482D01*
X94072Y63442D01*
X94079Y63443D01*
X94086Y63442D01*
X95143D01*
Y48150D01*
X95221Y47759D01*
X95442Y47429D01*
X95773Y47208D01*
X96163Y47130D01*
X108631D01*
X109021Y47208D01*
X109352Y47429D01*
X109573Y47759D01*
X109651Y48150D01*
Y54746D01*
X109573Y55136D01*
X109352Y55467D01*
X109170Y55589D01*
Y60036D01*
X109187Y60048D01*
X109350Y60155D01*
X109351Y60158D01*
X109353Y60159D01*
X109463Y60322D01*
X109573Y60485D01*
X109573Y60488D01*
X109575Y60490D01*
X109613Y60682D01*
X109652Y60875D01*
X109661Y62713D01*
X109661Y62714D01*
X109661Y62715D01*
X109624Y62909D01*
X109586Y63103D01*
X109585Y63104D01*
X109585Y63106D01*
X109477Y63268D01*
X109367Y63435D01*
X109365Y63436D01*
X109365Y63437D01*
X108666Y64140D01*
Y68180D01*
X108675D01*
X108869Y68218D01*
X109060Y68255D01*
X109063Y68257D01*
X109065Y68257D01*
X109229Y68367D01*
X109392Y68475D01*
X109394Y68477D01*
X109396Y68478D01*
X109505Y68642D01*
X109615Y68804D01*
X109616Y68807D01*
X109617Y68809D01*
X109655Y69002D01*
X109695Y69194D01*
X109723Y74876D01*
X109723Y74878D01*
X109723Y74879D01*
X109686Y75072D01*
X109648Y75267D01*
X109647Y75268D01*
X109647Y75269D01*
X109538Y75433D01*
X109429Y75599D01*
X109427Y75600D01*
X109427Y75601D01*
X108721Y76310D01*
X108720Y76310D01*
X108720Y76311D01*
X108554Y76422D01*
X108391Y76531D01*
X108390Y76532D01*
X108389Y76533D01*
X108195Y76571D01*
X108001Y76610D01*
X108000Y76610D01*
X107999Y76610D01*
X102301D01*
Y110524D01*
X102223Y110915D01*
X102002Y111245D01*
X101671Y111466D01*
X101281Y111544D01*
D02*
G37*
%LPD*%
G36*
Y75590D02*
X107999D01*
X108704Y74882D01*
X108675Y69199D01*
X107634D01*
Y63427D01*
X107937D01*
X108642Y62718D01*
X108633Y60880D01*
X108150D01*
Y54746D01*
X108631D01*
Y48150D01*
X96163D01*
Y64461D01*
X94086D01*
X93238Y64827D01*
Y70980D01*
X87277D01*
Y69412D01*
X84352D01*
Y80209D01*
X39024D01*
Y42083D01*
X34870D01*
Y43236D01*
X36331D01*
Y48389D01*
X31370D01*
Y43236D01*
X32831D01*
Y42083D01*
X24248D01*
Y110524D01*
X101281D01*
Y75590D01*
D02*
G37*
G36*
X83332Y70679D02*
X78564D01*
Y65088D01*
X77719Y64714D01*
X48819D01*
X48436Y64556D01*
X48278Y64173D01*
Y40945D01*
Y38512D01*
X36237D01*
Y40170D01*
X36237D01*
X36495Y41063D01*
X39024D01*
X39414Y41141D01*
X39745Y41362D01*
X39966Y41693D01*
X40043Y42083D01*
Y79190D01*
X83332D01*
Y70679D01*
D02*
G37*
%LPC*%
G36*
X105488Y59342D02*
X105312D01*
X104726Y59226D01*
X104230Y58894D01*
X104137Y58801D01*
X103805Y58305D01*
X103689Y57719D01*
X103805Y57134D01*
X104137Y56638D01*
X104633Y56306D01*
X105218Y56190D01*
X105803Y56306D01*
X105888Y56363D01*
X106073Y56400D01*
X106570Y56732D01*
X106901Y57228D01*
X107018Y57813D01*
X106901Y58398D01*
X106570Y58894D01*
X106073Y59226D01*
X105488Y59342D01*
D02*
G37*
%LPD*%
D13*
X54728Y36925D02*
G03*
X52905Y38749I-1823J0D01*
G01*
X86489Y67883D02*
X86929Y67444D01*
X84409Y39291D02*
X86929Y41811D01*
Y67444D01*
X86303Y67883D02*
X89928D01*
X81255D02*
X86489D01*
X89928D02*
X90103Y68058D01*
X81693Y39291D02*
X84409D01*
X81693Y35425D02*
Y39291D01*
X81596Y35327D02*
X81693Y35425D01*
X105218Y57719D02*
X105312Y57813D01*
X54161Y37493D02*
X54728Y36925D01*
X33850Y37493D02*
X54161D01*
X33850D02*
Y45812D01*
X105312Y57813D02*
X105488D01*
D15*
X179728Y31500D02*
D03*
Y53350D02*
D03*
D31*
X170606Y45170D02*
D03*
X81693Y39291D02*
D03*
X103543Y51496D02*
D03*
X130475Y15293D02*
D03*
X121459Y-10888D02*
D03*
X59333Y119230D02*
D03*
X26971Y127773D02*
D03*
X10081Y87222D02*
D03*
X-8659Y64387D02*
D03*
X9570Y56907D02*
D03*
X-903Y31671D02*
D03*
X100475Y7812D02*
D03*
X57837Y-7463D02*
D03*
X26459Y1120D02*
D03*
X180751Y88718D02*
D03*
X138861Y111946D02*
D03*
X144255Y53836D02*
D03*
X172522Y69860D02*
D03*
X140475Y73678D02*
D03*
X153507Y90923D02*
D03*
X105039Y123031D02*
D03*
X32083Y25854D02*
D03*
X36020D02*
D03*
X83697Y23295D02*
D03*
X79760D02*
D03*
X68797Y19953D02*
D03*
X49938Y20229D02*
D03*
X44327Y33138D02*
D03*
X54169Y72508D02*
D03*
X44327Y42980D02*
D03*
Y52823D02*
D03*
Y62665D02*
D03*
Y72508D02*
D03*
X173622Y27559D02*
D03*
X177559D02*
D03*
X181496D02*
D03*
X185433D02*
D03*
Y57480D02*
D03*
X181496D02*
D03*
X177559D02*
D03*
X173622D02*
D03*
X68997Y68005D02*
D03*
X111123Y51469D02*
D03*
X117029Y68162D02*
D03*
X75297Y75091D02*
D03*
X117029Y64225D02*
D03*
X116635Y57768D02*
D03*
X112812Y38233D02*
D03*
X116932Y39666D02*
D03*
X121294D02*
D03*
X125656D02*
D03*
X130019D02*
D03*
X134381D02*
D03*
X138743D02*
D03*
X143105D02*
D03*
X147467D02*
D03*
X151830D02*
D03*
X156192D02*
D03*
X160554D02*
D03*
X164916D02*
D03*
X169278D02*
D03*
X166266Y45185D02*
D03*
X161904D02*
D03*
X157542D02*
D03*
X153180D02*
D03*
X148818D02*
D03*
X144455D02*
D03*
X140093D02*
D03*
X135731D02*
D03*
X131369D02*
D03*
X127006D02*
D03*
X122644D02*
D03*
X118282D02*
D03*
X114107Y46448D02*
D03*
D34*
X64728Y36925D02*
D03*
D35*
X54728D02*
D03*
D36*
X115454Y102257D02*
D03*
D37*
X95769D02*
D03*
D38*
X169685Y118110D02*
D03*
X0D02*
D03*
Y0D02*
D03*
X169685Y0D02*
D03*
D39*
X90257Y67904D02*
D03*
Y73617D02*
D03*
X33850Y45812D02*
D03*
Y51526D02*
D03*
D40*
X81596Y30004D02*
D03*
Y35327D02*
D03*
X33850Y32169D02*
D03*
Y37493D02*
D03*
D41*
X75139Y67883D02*
D03*
X81255D02*
D03*
D42*
X111020Y57813D02*
D03*
X105312D02*
D03*
D43*
X105488Y66313D02*
D03*
X110812D02*
D03*
M02*
