G04*
G04 #@! TF.GenerationSoftware,Altium Limited,Altium Designer,24.4.1 (13)*
G04*
G04 Layer_Color=255*
%FSLAX25Y25*%
%MOIN*%
G70*
G04*
G04 #@! TF.SameCoordinates,D49A6A7F-BD6C-421B-9F91-F44A7ED913D7*
G04*
G04*
G04 #@! TF.FilePolarity,Positive*
G04*
G01*
G75*
%ADD14R,0.14173X0.03150*%
%ADD15R,0.14961X0.03150*%
%ADD16R,0.04153X0.03961*%
%ADD17R,0.03963X0.03773*%
G04:AMPARAMS|DCode=18|XSize=25.59mil|YSize=64.96mil|CornerRadius=1.92mil|HoleSize=0mil|Usage=FLASHONLY|Rotation=90.000|XOffset=0mil|YOffset=0mil|HoleType=Round|Shape=RoundedRectangle|*
%AMROUNDEDRECTD18*
21,1,0.02559,0.06112,0,0,90.0*
21,1,0.02175,0.06496,0,0,90.0*
1,1,0.00384,0.03056,0.01088*
1,1,0.00384,0.03056,-0.01088*
1,1,0.00384,-0.03056,-0.01088*
1,1,0.00384,-0.03056,0.01088*
%
%ADD18ROUNDEDRECTD18*%
%ADD19R,0.03150X0.03937*%
%ADD34C,0.07480*%
%ADD35R,0.07480X0.07480*%
%ADD36C,0.06299*%
%ADD37R,0.06299X0.06299*%
%ADD38C,0.23622*%
D14*
X179728Y42425D02*
D03*
D15*
Y31500D02*
D03*
Y53350D02*
D03*
D16*
X58872Y47425D02*
D03*
X64585D02*
D03*
D17*
X58871Y55925D02*
D03*
X64586D02*
D03*
D18*
X96228Y37425D02*
D03*
Y42425D02*
D03*
Y47425D02*
D03*
Y52425D02*
D03*
X73984Y37425D02*
D03*
Y42425D02*
D03*
Y47425D02*
D03*
Y52425D02*
D03*
D19*
X105776Y42425D02*
D03*
X111681D02*
D03*
D34*
X64728Y36925D02*
D03*
D35*
X54728D02*
D03*
D36*
X115454Y102257D02*
D03*
D37*
X95769D02*
D03*
D38*
X169685Y118110D02*
D03*
X0D02*
D03*
Y0D02*
D03*
X169685Y0D02*
D03*
M02*
