G04*
G04 #@! TF.GenerationSoftware,Altium Limited,Altium Designer,24.4.1 (13)*
G04*
G04 Layer_Physical_Order=1*
G04 Layer_Color=255*
%FSLAX25Y25*%
%MOIN*%
G70*
G04*
G04 #@! TF.SameCoordinates,D49A6A7F-BD6C-421B-9F91-F44A7ED913D7*
G04*
G04*
G04 #@! TF.FilePolarity,Positive*
G04*
G01*
G75*
%ADD13C,0.01000*%
%ADD14R,0.14173X0.03150*%
%ADD15R,0.14961X0.03150*%
%ADD16R,0.04153X0.03961*%
%ADD17R,0.03963X0.03773*%
G04:AMPARAMS|DCode=18|XSize=25.59mil|YSize=64.96mil|CornerRadius=1.92mil|HoleSize=0mil|Usage=FLASHONLY|Rotation=90.000|XOffset=0mil|YOffset=0mil|HoleType=Round|Shape=RoundedRectangle|*
%AMROUNDEDRECTD18*
21,1,0.02559,0.06112,0,0,90.0*
21,1,0.02175,0.06496,0,0,90.0*
1,1,0.00384,0.03056,0.01088*
1,1,0.00384,0.03056,-0.01088*
1,1,0.00384,-0.03056,-0.01088*
1,1,0.00384,-0.03056,0.01088*
%
%ADD18ROUNDEDRECTD18*%
%ADD19R,0.03150X0.03937*%
%ADD31C,0.02362*%
%ADD33C,0.00990*%
%ADD34C,0.07480*%
%ADD35R,0.07480X0.07480*%
%ADD36C,0.06299*%
%ADD37R,0.06299X0.06299*%
%ADD38C,0.23622*%
G36*
X173298Y136275D02*
X175638Y135648D01*
X177876Y134721D01*
X179974Y133510D01*
X181896Y132035D01*
X183609Y130322D01*
X185084Y128400D01*
X186296Y126302D01*
X187223Y124064D01*
X187850Y121723D01*
X188166Y119322D01*
Y118110D01*
Y44754D01*
X172520D01*
X172137Y44595D01*
X171978Y44213D01*
Y43440D01*
X113756D01*
Y44894D01*
X110143D01*
X109989Y45265D01*
X109606Y45423D01*
X107835D01*
X107452Y45265D01*
X107298Y44894D01*
X103701D01*
Y43436D01*
X100127D01*
X99957Y43681D01*
X99936Y43783D01*
X99783Y44012D01*
X99677Y44083D01*
X99570Y44237D01*
X99761Y45222D01*
X100144Y45478D01*
X100407Y45873D01*
X100431Y45994D01*
X101697D01*
X102282Y46111D01*
X102778Y46442D01*
X104625Y48289D01*
X104956Y48785D01*
X105073Y49370D01*
Y49941D01*
X105392Y50261D01*
X105724Y51062D01*
Y51930D01*
X105392Y52732D01*
X104779Y53345D01*
X103977Y53677D01*
X103110D01*
X102308Y53345D01*
X101694Y52732D01*
X101362Y51930D01*
Y51062D01*
X101694Y50261D01*
X101983Y49972D01*
X101260Y49250D01*
X100176Y49324D01*
X100144Y49372D01*
X99749Y49636D01*
X99575Y49670D01*
X99555Y50646D01*
X99564Y50692D01*
X99783Y50839D01*
X99936Y51068D01*
X99990Y51338D01*
Y53513D01*
X99936Y53783D01*
X99783Y54012D01*
X99554Y54165D01*
X99284Y54218D01*
X93172D01*
X92902Y54165D01*
X92673Y54012D01*
X92520Y53783D01*
X92467Y53513D01*
Y51338D01*
X92520Y51068D01*
X92673Y50839D01*
X92893Y50692D01*
X92901Y50646D01*
X92882Y49670D01*
X92707Y49636D01*
X92313Y49372D01*
X92049Y48978D01*
X91957Y48513D01*
Y46338D01*
X92049Y45873D01*
X92313Y45478D01*
X92707Y45215D01*
X92882Y45180D01*
X92901Y44204D01*
X92893Y44158D01*
X92673Y44012D01*
X92619Y43930D01*
X91846Y43509D01*
X91467Y43507D01*
X90846Y43556D01*
X89190Y43953D01*
X87616Y44605D01*
X86958Y45008D01*
Y64173D01*
X86800Y64556D01*
X86417Y64714D01*
X48819D01*
X48436Y64556D01*
X48278Y64173D01*
Y40945D01*
Y30709D01*
X48436Y30326D01*
X48819Y30167D01*
X68801D01*
X69183Y30326D01*
X69342Y30709D01*
Y39996D01*
X70342Y40296D01*
X70463Y40215D01*
X70928Y40122D01*
X77040D01*
X77505Y40215D01*
X77788Y40404D01*
X78418D01*
X79512Y39310D01*
Y38857D01*
X79844Y38056D01*
X80457Y37442D01*
X81259Y37110D01*
X82127D01*
X82928Y37442D01*
X83542Y38056D01*
X83874Y38857D01*
Y39725D01*
X84327Y40404D01*
X86417D01*
X86800Y40562D01*
X86958Y40945D01*
Y41770D01*
X87790Y42325D01*
X88557Y42007D01*
X90526Y41535D01*
X90995Y41498D01*
X90996Y41497D01*
X90997Y41498D01*
X91557Y41454D01*
X91658Y41427D01*
X92467Y41375D01*
Y41338D01*
X92520Y41068D01*
X92673Y40839D01*
X92902Y40686D01*
X93172Y40632D01*
X99284D01*
X99554Y40686D01*
X99783Y40839D01*
X99936Y41068D01*
X99990Y41338D01*
Y41407D01*
X103701D01*
Y39957D01*
X107295D01*
X107452Y39578D01*
X107835Y39419D01*
X109606D01*
X109989Y39578D01*
X110146Y39957D01*
X113756D01*
Y41411D01*
X171978D01*
Y40669D01*
X172137Y40287D01*
X172520Y40128D01*
X188166D01*
Y0D01*
Y-1211D01*
X187850Y-3613D01*
X187223Y-5953D01*
X186296Y-8191D01*
X185084Y-10289D01*
X183609Y-12211D01*
X181896Y-13924D01*
X179974Y-15399D01*
X177876Y-16611D01*
X175638Y-17538D01*
X173298Y-18165D01*
X170896Y-18481D01*
X169685D01*
X0Y-18481D01*
X-1211D01*
X-3613Y-18165D01*
X-5953Y-17538D01*
X-8191Y-16611D01*
X-10289Y-15399D01*
X-12211Y-13925D01*
X-13925Y-12212D01*
X-15399Y-10289D01*
X-16611Y-8191D01*
X-17538Y-5953D01*
X-18165Y-3613D01*
X-18481Y-1211D01*
Y0D01*
Y118110D01*
Y119322D01*
X-18165Y121723D01*
X-17538Y124064D01*
X-16611Y126302D01*
X-15399Y128400D01*
X-13925Y130322D01*
X-12212Y132035D01*
X-10289Y133510D01*
X-8191Y134721D01*
X-5953Y135648D01*
X-3613Y136275D01*
X-1211Y136591D01*
X170896D01*
X173298Y136275D01*
D02*
G37*
%LPC*%
G36*
X99919Y106406D02*
X91619D01*
Y98107D01*
X99919D01*
Y106406D01*
D02*
G37*
G36*
X99284Y39218D02*
X93172D01*
X92902Y39165D01*
X92673Y39012D01*
X92520Y38783D01*
X92467Y38513D01*
Y36338D01*
X92520Y36068D01*
X92673Y35839D01*
X92902Y35686D01*
X93172Y35632D01*
X99284D01*
X99554Y35686D01*
X99783Y35839D01*
X99936Y36068D01*
X99990Y36338D01*
Y38513D01*
X99936Y38783D01*
X99783Y39012D01*
X99554Y39165D01*
X99284Y39218D01*
D02*
G37*
%LPD*%
D13*
X101697Y47524D02*
X103543Y49370D01*
X96327Y47524D02*
X101697D01*
X103543Y49370D02*
Y51496D01*
X73984Y42425D02*
X74083Y42327D01*
X78658D02*
X81693Y39291D01*
X74083Y42327D02*
X78658D01*
X96228Y47425D02*
X96327Y47524D01*
X64728Y47425D02*
X73984D01*
X64728Y36925D02*
Y47425D01*
X64586D02*
X64728D01*
X64585D02*
X64586D01*
Y55925D01*
D14*
X179728Y42425D02*
D03*
D15*
Y31500D02*
D03*
Y53350D02*
D03*
D16*
X58872Y47425D02*
D03*
X64585D02*
D03*
D17*
X58871Y55925D02*
D03*
X64586D02*
D03*
D18*
X96228Y37425D02*
D03*
Y42425D02*
D03*
Y47425D02*
D03*
Y52425D02*
D03*
X73984Y37425D02*
D03*
Y42425D02*
D03*
Y47425D02*
D03*
Y52425D02*
D03*
D19*
X105776Y42425D02*
D03*
X111681D02*
D03*
D31*
X170606Y45170D02*
D03*
X81693Y39291D02*
D03*
X103543Y51496D02*
D03*
X130475Y15293D02*
D03*
X121459Y-10888D02*
D03*
X59333Y119230D02*
D03*
X26971Y127773D02*
D03*
X10081Y87222D02*
D03*
X-8659Y64387D02*
D03*
X9570Y56907D02*
D03*
X-903Y31671D02*
D03*
X100475Y7812D02*
D03*
X57837Y-7463D02*
D03*
X26459Y1120D02*
D03*
X180751Y88718D02*
D03*
X138861Y111946D02*
D03*
X144255Y53836D02*
D03*
X172522Y69860D02*
D03*
X140475Y73678D02*
D03*
X153507Y90923D02*
D03*
X105039Y123031D02*
D03*
X32083Y25854D02*
D03*
X36020D02*
D03*
X83697Y23295D02*
D03*
X79760D02*
D03*
X68797Y19953D02*
D03*
X49938Y20229D02*
D03*
X44327Y33138D02*
D03*
X54169Y72508D02*
D03*
X44327Y42980D02*
D03*
Y52823D02*
D03*
Y62665D02*
D03*
Y72508D02*
D03*
X173622Y27559D02*
D03*
X177559D02*
D03*
X181496D02*
D03*
X185433D02*
D03*
Y57480D02*
D03*
X181496D02*
D03*
X177559D02*
D03*
X173622D02*
D03*
X68997Y68005D02*
D03*
X111123Y51469D02*
D03*
X117029Y68162D02*
D03*
X75297Y75091D02*
D03*
X117029Y64225D02*
D03*
X116635Y57768D02*
D03*
X112812Y38233D02*
D03*
X116932Y39666D02*
D03*
X121294D02*
D03*
X125656D02*
D03*
X130019D02*
D03*
X134381D02*
D03*
X138743D02*
D03*
X143105D02*
D03*
X147467D02*
D03*
X151830D02*
D03*
X156192D02*
D03*
X160554D02*
D03*
X164916D02*
D03*
X169278D02*
D03*
X166266Y45185D02*
D03*
X161904D02*
D03*
X157542D02*
D03*
X153180D02*
D03*
X148818D02*
D03*
X144455D02*
D03*
X140093D02*
D03*
X135731D02*
D03*
X131369D02*
D03*
X127006D02*
D03*
X122644D02*
D03*
X118282D02*
D03*
X114107Y46448D02*
D03*
D33*
X90996Y42512D02*
G03*
X91722Y42439I1547J11763D01*
G01*
X84030Y46012D02*
G03*
X90996Y42512I8514J8263D01*
G01*
X80949Y53733D02*
G03*
X72983Y61700I-7966J1D01*
G01*
X80949Y53733D02*
G03*
X84030Y46012I11242J10D01*
G01*
X61880Y61700D02*
G03*
X58752Y58572I0J-3128D01*
G01*
X93475Y42338D02*
X96228Y42425D01*
X93397Y42335D02*
X93475Y42338D01*
X93351Y42335D02*
X93397D01*
X91722Y42439D02*
X93351Y42335D01*
X58752Y54534D02*
X58871Y55925D01*
X58752Y57317D02*
X58871Y55925D01*
X96232Y42421D02*
X105772D01*
X58752Y48911D02*
X58868Y47421D01*
X61880Y61700D02*
X72983Y61700D01*
X58752Y48911D02*
Y54534D01*
Y57317D02*
Y58572D01*
X111681Y42425D02*
X179728D01*
D34*
X64728Y36925D02*
D03*
D35*
X54728D02*
D03*
D36*
X115454Y102257D02*
D03*
D37*
X95769D02*
D03*
D38*
X169685Y118110D02*
D03*
X0D02*
D03*
Y0D02*
D03*
X169685Y0D02*
D03*
M02*
