G04*
G04 #@! TF.GenerationSoftware,Altium Limited,Altium Designer,24.4.1 (13)*
G04*
G04 Layer_Physical_Order=2*
G04 Layer_Color=36540*
%FSLAX25Y25*%
%MOIN*%
G70*
G04*
G04 #@! TF.SameCoordinates,D49A6A7F-BD6C-421B-9F91-F44A7ED913D7*
G04*
G04*
G04 #@! TF.FilePolarity,Positive*
G04*
G01*
G75*
%ADD31C,0.02362*%
%ADD34C,0.07480*%
%ADD35R,0.07480X0.07480*%
%ADD36C,0.06299*%
%ADD37R,0.06299X0.06299*%
%ADD38C,0.23622*%
G36*
X173298Y136275D02*
X175638Y135648D01*
X177876Y134721D01*
X179974Y133510D01*
X181896Y132035D01*
X183609Y130322D01*
X185084Y128400D01*
X186296Y126302D01*
X187223Y124064D01*
X187850Y121723D01*
X188166Y119322D01*
Y118110D01*
Y44754D01*
X172520D01*
X172137Y44595D01*
X171978Y44213D01*
Y40669D01*
X172137Y40287D01*
X172520Y40128D01*
X188166D01*
Y0D01*
Y-1211D01*
X187850Y-3613D01*
X187223Y-5953D01*
X186296Y-8191D01*
X185084Y-10289D01*
X183609Y-12211D01*
X181896Y-13924D01*
X179974Y-15399D01*
X177876Y-16611D01*
X175638Y-17538D01*
X173298Y-18165D01*
X170896Y-18481D01*
X169685D01*
X0Y-18481D01*
X-1211D01*
X-3613Y-18165D01*
X-5953Y-17538D01*
X-8191Y-16611D01*
X-10289Y-15399D01*
X-12211Y-13925D01*
X-13925Y-12212D01*
X-15399Y-10289D01*
X-16611Y-8191D01*
X-17538Y-5953D01*
X-18165Y-3613D01*
X-18481Y-1211D01*
Y0D01*
Y118110D01*
Y119322D01*
X-18165Y121723D01*
X-17538Y124064D01*
X-16611Y126302D01*
X-15399Y128400D01*
X-13925Y130322D01*
X-12212Y132035D01*
X-10289Y133510D01*
X-8191Y134721D01*
X-5953Y135648D01*
X-3613Y136275D01*
X-1211Y136591D01*
X170896D01*
X173298Y136275D01*
D02*
G37*
%LPC*%
G36*
X99919Y106406D02*
X91619D01*
Y98107D01*
X99919D01*
Y106406D01*
D02*
G37*
G36*
X103977Y53677D02*
X103110D01*
X102308Y53345D01*
X101694Y52732D01*
X101362Y51930D01*
Y51062D01*
X101694Y50261D01*
X102308Y49647D01*
X103110Y49315D01*
X103977D01*
X104779Y49647D01*
X105392Y50261D01*
X105724Y51062D01*
Y51930D01*
X105392Y52732D01*
X104779Y53345D01*
X103977Y53677D01*
D02*
G37*
G36*
X86417Y64714D02*
X48819D01*
X48436Y64556D01*
X48278Y64173D01*
Y40945D01*
Y30709D01*
X48436Y30326D01*
X48819Y30167D01*
X68801D01*
X69183Y30326D01*
X69342Y30709D01*
Y40404D01*
X79058D01*
X79512Y39725D01*
Y38857D01*
X79844Y38056D01*
X80457Y37442D01*
X81259Y37110D01*
X82127D01*
X82928Y37442D01*
X83542Y38056D01*
X83874Y38857D01*
Y39725D01*
X84327Y40404D01*
X86417D01*
X86800Y40562D01*
X86958Y40945D01*
Y64173D01*
X86800Y64556D01*
X86417Y64714D01*
D02*
G37*
%LPD*%
D31*
X170606Y45170D02*
D03*
X81693Y39291D02*
D03*
X103543Y51496D02*
D03*
X130475Y15293D02*
D03*
X121459Y-10888D02*
D03*
X59333Y119230D02*
D03*
X26971Y127773D02*
D03*
X10081Y87222D02*
D03*
X-8659Y64387D02*
D03*
X9570Y56907D02*
D03*
X-903Y31671D02*
D03*
X100475Y7812D02*
D03*
X57837Y-7463D02*
D03*
X26459Y1120D02*
D03*
X180751Y88718D02*
D03*
X138861Y111946D02*
D03*
X144255Y53836D02*
D03*
X172522Y69860D02*
D03*
X140475Y73678D02*
D03*
X153507Y90923D02*
D03*
X105039Y123031D02*
D03*
X32083Y25854D02*
D03*
X36020D02*
D03*
X83697Y23295D02*
D03*
X79760D02*
D03*
X68797Y19953D02*
D03*
X49938Y20229D02*
D03*
X44327Y33138D02*
D03*
X54169Y72508D02*
D03*
X44327Y42980D02*
D03*
Y52823D02*
D03*
Y62665D02*
D03*
Y72508D02*
D03*
X173622Y27559D02*
D03*
X177559D02*
D03*
X181496D02*
D03*
X185433D02*
D03*
Y57480D02*
D03*
X181496D02*
D03*
X177559D02*
D03*
X173622D02*
D03*
X68997Y68005D02*
D03*
X111123Y51469D02*
D03*
X117029Y68162D02*
D03*
X75297Y75091D02*
D03*
X117029Y64225D02*
D03*
X116635Y57768D02*
D03*
X112812Y38233D02*
D03*
X116932Y39666D02*
D03*
X121294D02*
D03*
X125656D02*
D03*
X130019D02*
D03*
X134381D02*
D03*
X138743D02*
D03*
X143105D02*
D03*
X147467D02*
D03*
X151830D02*
D03*
X156192D02*
D03*
X160554D02*
D03*
X164916D02*
D03*
X169278D02*
D03*
X166266Y45185D02*
D03*
X161904D02*
D03*
X157542D02*
D03*
X153180D02*
D03*
X148818D02*
D03*
X144455D02*
D03*
X140093D02*
D03*
X135731D02*
D03*
X131369D02*
D03*
X127006D02*
D03*
X122644D02*
D03*
X118282D02*
D03*
X114107Y46448D02*
D03*
D34*
X64728Y36925D02*
D03*
D35*
X54728D02*
D03*
D36*
X115454Y102257D02*
D03*
D37*
X95769D02*
D03*
D38*
X169685Y118110D02*
D03*
X0D02*
D03*
Y0D02*
D03*
X169685Y0D02*
D03*
M02*
