G04*
G04 #@! TF.GenerationSoftware,Altium Limited,Altium Designer,24.4.1 (13)*
G04*
G04 Layer_Color=8388736*
%FSLAX25Y25*%
%MOIN*%
G70*
G04*
G04 #@! TF.SameCoordinates,D49A6A7F-BD6C-421B-9F91-F44A7ED913D7*
G04*
G04*
G04 #@! TF.FilePolarity,Negative*
G04*
G01*
G75*
%ADD20R,0.14567X0.03543*%
%ADD21R,0.16961X0.05150*%
%ADD22R,0.04956X0.04765*%
%ADD23R,0.04766X0.04576*%
G04:AMPARAMS|DCode=24|XSize=33.59mil|YSize=72.96mil|CornerRadius=5.92mil|HoleSize=0mil|Usage=FLASHONLY|Rotation=90.000|XOffset=0mil|YOffset=0mil|HoleType=Round|Shape=RoundedRectangle|*
%AMROUNDEDRECTD24*
21,1,0.03359,0.06112,0,0,90.0*
21,1,0.02175,0.07296,0,0,90.0*
1,1,0.01184,0.03056,0.01088*
1,1,0.01184,0.03056,-0.01088*
1,1,0.01184,-0.03056,-0.01088*
1,1,0.01184,-0.03056,0.01088*
%
%ADD24ROUNDEDRECTD24*%
%ADD25R,0.03950X0.04737*%
%ADD26C,0.08284*%
%ADD27R,0.08284X0.08284*%
%ADD28C,0.07099*%
%ADD29R,0.07099X0.07099*%
%ADD30C,0.24422*%
%ADD31C,0.02362*%
%ADD32C,0.03162*%
G36*
X188189Y23622D02*
X171260D01*
Y34646D01*
X188189D01*
Y23622D01*
D02*
G37*
G36*
Y50394D02*
X171260D01*
Y61417D01*
X188189D01*
Y50394D01*
D02*
G37*
D20*
X179728Y42425D02*
D03*
D21*
Y31500D02*
D03*
Y53350D02*
D03*
D22*
X58872Y47425D02*
D03*
X64585D02*
D03*
D23*
X58871Y55925D02*
D03*
X64586D02*
D03*
D24*
X96228Y37425D02*
D03*
Y42425D02*
D03*
Y47425D02*
D03*
Y52425D02*
D03*
X73984Y37425D02*
D03*
Y42425D02*
D03*
Y47425D02*
D03*
Y52425D02*
D03*
D25*
X105776Y42425D02*
D03*
X111681D02*
D03*
D26*
X64728Y36925D02*
D03*
D27*
X54728D02*
D03*
D28*
X115454Y102257D02*
D03*
D29*
X95769D02*
D03*
D30*
X169685Y118110D02*
D03*
X0D02*
D03*
Y0D02*
D03*
X169685Y0D02*
D03*
D31*
X170606Y45170D02*
D03*
X112812Y38233D02*
D03*
X116932Y39666D02*
D03*
X121294D02*
D03*
X125656D02*
D03*
X130019D02*
D03*
X134381D02*
D03*
X138743D02*
D03*
X143105D02*
D03*
X147467D02*
D03*
X151830D02*
D03*
X156192D02*
D03*
X160554D02*
D03*
X164916D02*
D03*
X169278D02*
D03*
X166266Y45185D02*
D03*
X161904D02*
D03*
X157542D02*
D03*
X153180D02*
D03*
X148818D02*
D03*
X144455D02*
D03*
X140093D02*
D03*
X135731D02*
D03*
X131369D02*
D03*
X127006D02*
D03*
X122644D02*
D03*
X118282D02*
D03*
X114107Y46448D02*
D03*
D32*
X81693Y39291D02*
D03*
X103543Y51496D02*
D03*
X130475Y15293D02*
D03*
X121459Y-10888D02*
D03*
X59333Y119230D02*
D03*
X26971Y127773D02*
D03*
X10081Y87222D02*
D03*
X-8659Y64387D02*
D03*
X9570Y56907D02*
D03*
X-903Y31671D02*
D03*
X100475Y7812D02*
D03*
X57837Y-7463D02*
D03*
X26459Y1120D02*
D03*
X180751Y88718D02*
D03*
X138861Y111946D02*
D03*
X144255Y53836D02*
D03*
X172522Y69860D02*
D03*
X140475Y73678D02*
D03*
X153507Y90923D02*
D03*
X105039Y123031D02*
D03*
X32083Y25854D02*
D03*
X36020D02*
D03*
X83697Y23295D02*
D03*
X79760D02*
D03*
X68797Y19953D02*
D03*
X49938Y20229D02*
D03*
X44327Y33138D02*
D03*
X54169Y72508D02*
D03*
X44327Y42980D02*
D03*
Y52823D02*
D03*
Y62665D02*
D03*
Y72508D02*
D03*
X173622Y27559D02*
D03*
X177559D02*
D03*
X181496D02*
D03*
X185433D02*
D03*
Y57480D02*
D03*
X181496D02*
D03*
X177559D02*
D03*
X173622D02*
D03*
X68997Y68005D02*
D03*
X111123Y51469D02*
D03*
X117029Y68162D02*
D03*
X75297Y75091D02*
D03*
X117029Y64225D02*
D03*
X116635Y57768D02*
D03*
M02*
