G04*
G04 #@! TF.GenerationSoftware,Altium Limited,Altium Designer,24.4.1 (13)*
G04*
G04 Layer_Color=32896*
%FSLAX25Y25*%
%MOIN*%
G70*
G04*
G04 #@! TF.SameCoordinates,D49A6A7F-BD6C-421B-9F91-F44A7ED913D7*
G04*
G04*
G04 #@! TF.FilePolarity,Positive*
G04*
G01*
G75*
%ADD11C,0.00984*%
%ADD12C,0.00787*%
%ADD13C,0.01000*%
%ADD49C,0.00591*%
D11*
X96261Y83556D02*
G03*
X96261Y83556I-492J0D01*
G01*
D12*
X93813Y65827D02*
Y75694D01*
X86702Y65827D02*
Y75694D01*
X30389Y29992D02*
Y39670D01*
X37311Y29992D02*
Y39670D01*
X30295Y43736D02*
Y53603D01*
X37406Y43736D02*
Y53603D01*
X83564Y118398D02*
X125297D01*
Y86115D02*
Y118398D01*
X83564Y86115D02*
X125297D01*
X83564D02*
Y118398D01*
X49098Y32201D02*
Y41650D01*
X103311Y69774D02*
X112989D01*
X103311Y62852D02*
X112989D01*
X73449Y64513D02*
X82945D01*
X73449Y71253D02*
X82945D01*
X85057Y27827D02*
Y37505D01*
X78135Y27827D02*
Y37505D01*
D13*
X146634Y-2614D02*
Y3384D01*
X143635D01*
X142635Y2384D01*
Y385D01*
X143635Y-615D01*
X146634D01*
X140636Y3384D02*
Y-2614D01*
X137637D01*
X136637Y-1615D01*
Y2384D01*
X137637Y3384D01*
X140636D01*
X134638Y-2614D02*
Y1385D01*
X132638Y3384D01*
X130639Y1385D01*
Y-2614D01*
Y385D01*
X134638D01*
X128640Y-2614D02*
Y3384D01*
X126640Y1385D01*
X124641Y3384D01*
Y-2614D01*
X122642D02*
Y3384D01*
X119643D01*
X118643Y2384D01*
Y385D01*
X119643Y-615D01*
X122642D01*
X110645Y-2614D02*
Y3384D01*
X108646Y1385D01*
X106647Y3384D01*
Y-2614D01*
X104647D02*
Y3384D01*
Y-615D02*
X101648Y1385D01*
X104647Y-615D02*
X101648Y-2614D01*
X98649D02*
Y-1615D01*
X97650D01*
Y-2614D01*
X98649D01*
X87653D02*
X85654D01*
X86653D01*
Y3384D01*
X87653Y2384D01*
X148606Y105423D02*
Y101425D01*
X146607Y99425D01*
X144608Y101425D01*
Y105423D01*
X138610Y104424D02*
X139609Y105423D01*
X141609D01*
X142608Y104424D01*
Y103424D01*
X141609Y102424D01*
X139609D01*
X138610Y101425D01*
Y100425D01*
X139609Y99425D01*
X141609D01*
X142608Y100425D01*
X136610Y99425D02*
Y105423D01*
X132612Y99425D01*
Y105423D01*
X77740D02*
Y101425D01*
X75741Y99425D01*
X73741Y101425D01*
Y105423D01*
X67743Y104424D02*
X68743Y105423D01*
X70742D01*
X71742Y104424D01*
Y103424D01*
X70742Y102424D01*
X68743D01*
X67743Y101425D01*
Y100425D01*
X68743Y99425D01*
X70742D01*
X71742Y100425D01*
X65744Y99425D02*
Y105423D01*
X62745D01*
X61745Y104424D01*
Y102424D01*
X62745Y101425D01*
X65744D01*
X20574Y39326D02*
X21574Y40326D01*
X23573D01*
X24573Y39326D01*
Y35327D01*
X23573Y34328D01*
X21574D01*
X20574Y35327D01*
X14576Y40326D02*
X18575D01*
Y37327D01*
X16576Y38326D01*
X15576D01*
X14576Y37327D01*
Y35327D01*
X15576Y34328D01*
X17575D01*
X18575Y35327D01*
X95488Y34677D02*
X96487Y35676D01*
X98487D01*
X99487Y34677D01*
Y30678D01*
X98487Y29678D01*
X96487D01*
X95488Y30678D01*
X93489Y34677D02*
X92489Y35676D01*
X90490D01*
X89490Y34677D01*
Y33677D01*
X90490Y32677D01*
X91489D01*
X90490D01*
X89490Y31677D01*
Y30678D01*
X90490Y29678D01*
X92489D01*
X93489Y30678D01*
X129346Y69716D02*
X130346Y70716D01*
X132345D01*
X133345Y69716D01*
Y65717D01*
X132345Y64718D01*
X130346D01*
X129346Y65717D01*
X123348Y64718D02*
X127347D01*
X123348Y68716D01*
Y69716D01*
X124348Y70716D01*
X126347D01*
X127347Y69716D01*
X129134Y59873D02*
X130133Y60873D01*
X132133D01*
X133133Y59873D01*
Y55875D01*
X132133Y54875D01*
X130133D01*
X129134Y55875D01*
X127135Y54875D02*
X125135D01*
X126135D01*
Y60873D01*
X127135Y59873D01*
X24573Y46139D02*
Y52137D01*
X21574D01*
X20574Y51137D01*
Y49138D01*
X21574Y48138D01*
X24573D01*
X22574D02*
X20574Y46139D01*
X15576D02*
Y52137D01*
X18575Y49138D01*
X14576D01*
X68581Y71529D02*
Y77527D01*
X65582D01*
X64582Y76527D01*
Y74528D01*
X65582Y73528D01*
X68581D01*
X66582D02*
X64582Y71529D01*
X58584D02*
X62583D01*
X58584Y75527D01*
Y76527D01*
X59584Y77527D01*
X61583D01*
X62583Y76527D01*
X92188Y78103D02*
Y84101D01*
X89189D01*
X88189Y83102D01*
Y81102D01*
X89189Y80103D01*
X92188D01*
X90188D02*
X88189Y78103D01*
X86190D02*
X84190D01*
X85190D01*
Y84101D01*
X86190Y83102D01*
X66328Y9245D02*
Y15243D01*
X63329D01*
X62330Y14243D01*
Y12244D01*
X63329Y11244D01*
X66328D01*
X60330Y15243D02*
Y9245D01*
X57331D01*
X56332Y10245D01*
Y14243D01*
X57331Y15243D01*
X60330D01*
X54332Y9245D02*
X52333D01*
X53333D01*
Y15243D01*
X54332Y14243D01*
D49*
X71736Y36925D02*
G03*
X71736Y36925I-12008J0D01*
G01*
M02*
