G04*
G04 #@! TF.GenerationSoftware,Altium Limited,Altium Designer,24.4.1 (13)*
G04*
G04 Layer_Color=65535*
%FSLAX25Y25*%
%MOIN*%
G70*
G04*
G04 #@! TF.SameCoordinates,D49A6A7F-BD6C-421B-9F91-F44A7ED913D7*
G04*
G04*
G04 #@! TF.FilePolarity,Positive*
G04*
G01*
G75*
%ADD10C,0.02362*%
%ADD11C,0.00984*%
%ADD12C,0.00787*%
%ADD13C,0.01000*%
D10*
X83925Y50831D02*
G03*
X83925Y50831I-1181J0D01*
G01*
D11*
X74476Y55870D02*
G03*
X74476Y55870I-492J0D01*
G01*
D12*
X78807Y35083D02*
X91405D01*
X78807Y54768D02*
X91405D01*
Y35083D02*
Y54768D01*
X78807Y35083D02*
Y54768D01*
X56889Y59386D02*
X66567D01*
X56889Y52464D02*
X66567D01*
X56795Y50981D02*
X66662D01*
X56795Y43870D02*
X66662D01*
D13*
X148939Y22684D02*
X146939D01*
X145940Y21684D01*
Y17686D01*
X146939Y16686D01*
X148939D01*
X149938Y17686D01*
Y21684D01*
X148939Y22684D01*
X151938D02*
Y17686D01*
X152937Y16686D01*
X154937D01*
X155936Y17686D01*
Y22684D01*
X157936D02*
X161934D01*
X159935D01*
Y16686D01*
X30890Y61054D02*
X29890Y62054D01*
X27891D01*
X26891Y61054D01*
Y57056D01*
X27891Y56056D01*
X29890D01*
X30890Y57056D01*
X35888Y56056D02*
Y62054D01*
X32889Y59055D01*
X36888D01*
X92085Y63681D02*
Y58682D01*
X93085Y57683D01*
X95084D01*
X96084Y58682D01*
Y63681D01*
X98083Y57683D02*
X100083D01*
X99083D01*
Y63681D01*
X98083Y62681D01*
X104450Y16686D02*
Y22684D01*
X107449D01*
X108449Y21684D01*
Y19685D01*
X107449Y18685D01*
X104450D01*
X106450D02*
X108449Y16686D01*
X114447Y22684D02*
X110449D01*
Y19685D01*
X112448Y20685D01*
X113447D01*
X114447Y19685D01*
Y17686D01*
X113447Y16686D01*
X111448D01*
X110449Y17686D01*
X26891Y43458D02*
Y49456D01*
X29890D01*
X30890Y48456D01*
Y46457D01*
X29890Y45457D01*
X26891D01*
X28891D02*
X30890Y43458D01*
X32889Y48456D02*
X33889Y49456D01*
X35888D01*
X36888Y48456D01*
Y47456D01*
X35888Y46457D01*
X34889D01*
X35888D01*
X36888Y45457D01*
Y44457D01*
X35888Y43458D01*
X33889D01*
X32889Y44457D01*
M02*
