M48
;Layer_Color=9474304
;FILE_FORMAT=2:4
INCH,TZ
;TYPE=PLATED
T01F00S00C0.0118
T02F00S00C0.0433
T03F00S00C0.0492
T04F00S00C0.1299
%
T01
X10048Y781
X12146Y-1089
X5784Y-746
X2646Y112
X3208Y2585
X3602
X4433Y3314
Y4298
Y5282
Y6267
Y7251
X5417
X6900Y6800
X7530Y7509
X8169Y3929
X7976Y2330
X8370
X6880Y1995
X4994Y2023
X-90Y3167
X957Y5691
X-866Y6439
X1008Y8722
X2697Y12777
X5933Y11923
X10504Y12303
X13886Y11195
X15351Y9092
X18075Y8872
X17252Y6986
X17362Y5748
X17756
X18150
X18543
X17061Y4517
X16627Y4518
X16190
X15754
X15318
X14882
X14446
X14009
X13573
X13137
X12701
X12264
X11828
X11411Y4645
X11112Y5147
X10354Y5150
X11664Y5777
X11703Y6423
Y6816
X11693Y3967
X12129
X12566
X13002
X13438
X13874
X14311
X14747
X15183
X15619
X16055
X16492
X16928
X17362Y2756
X17756
X18150
X18543
X13048Y1529
X11281Y3823
X14425Y5384
X14048Y7368
T02
X9577Y10226
X11545
T03
X5473Y3693
X6473
T04
X16968Y0
X0Y0
Y11811
X16968
M30
